<?xml version="1.0" encoding="UTF-8" standalone="no"?>
<!DOCTYPE svg PUBLIC "-//W3C//DTD SVG 1.1//EN" "http://www.w3.org/Graphics/SVG/1.1/DTD/svg11.dtd">
<svg xmlns="http://www.w3.org/2000/svg" version="1.1" viewBox="0.00 0.00 500.00 500.00" width="500.00" height="500.00">
<path fill="#ffffff" d="
  M 312.73 152.42
  A 0.93 0.93 0.0 0 0 314.05 152.97
  C 321.93 148.85 332.93 143.00 341.81 141.65
  A 0.71 0.70 -36.0 0 1 342.21 141.71
  L 402.43 168.72
  A 2.90 2.90 0.0 0 1 404.14 171.44
  Q 403.61 194.26 403.78 217.44
  C 404.25 282.68 403.46 347.19 404.33 413.25
  C 404.36 415.26 404.03 416.39 405.73 417.79
  C 411.12 422.22 420.96 424.40 427.28 425.45
  Q 427.83 425.54 427.43 425.94
  L 420.95 432.43
  Q 420.56 432.82 420.03 432.64
  Q 365.19 414.33 313.22 382.02
  Q 276.10 358.94 241.75 332.38
  A 1.20 1.20 0.0 0 0 240.31 332.36
  Q 209.84 354.54 178.14 375.36
  Q 131.04 406.29 78.47 426.58
  C 77.08 427.12 75.83 427.01 74.38 427.00
  Q 73.84 426.99 73.46 426.61
  L 68.25 421.32
  Q 67.78 420.85 68.38 420.55
  L 100.75 404.48
  A 3.18 3.17 -13.3 0 0 102.52 401.62
  C 102.42 333.25 103.32 257.37 102.49 195.75
  C 102.45 193.38 103.15 191.67 105.45 190.57
  Q 132.90 177.53 160.83 165.60
  C 167.95 162.56 178.29 168.16 184.94 171.00
  A 1.13 1.12 -78.6 0 0 186.50 169.96
  C 186.50 138.57 186.98 107.03 185.97 75.57
  A 2.84 2.83 -13.7 0 1 187.60 72.90
  C 209.24 62.68 231.20 54.29 244.00 48.50
  C 248.55 46.44 250.65 46.64 255.45 48.63
  Q 283.53 60.28 310.65 73.39
  A 2.77 2.75 -77.2 0 1 312.21 75.88
  Q 312.26 112.77 312.44 150.25
  Q 312.44 151.48 312.73 152.42
  Z
  M 213.32 265.43
  L 215.08 264.69
  A 0.66 0.65 56.8 0 1 215.83 264.85
  L 239.84 291.41
  Q 240.89 292.57 241.92 291.40
  L 265.31 264.80
  A 1.73 1.73 0.0 0 1 267.88 264.76
  C 269.22 266.19 267.91 267.67 266.86 268.97
  Q 255.96 282.46 244.26 294.66
  A 1.35 1.34 -45.5 0 0 244.27 296.54
  L 257.94 310.36
  A 2.37 2.37 0.0 0 0 261.23 310.43
  L 282.78 290.54
  Q 283.24 290.12 283.70 290.55
  L 285.34 292.10
  Q 285.83 292.57 285.34 293.03
  L 263.68 313.41
  A 1.24 1.24 0.0 0 0 263.59 315.12
  C 265.88 317.81 269.33 320.66 271.24 322.44
  Q 329.35 376.45 398.28 415.04
  A 0.98 0.98 0.0 0 0 399.74 414.19
  L 399.76 172.64
  Q 399.76 172.01 399.18 171.76
  L 345.78 148.27
  Q 343.61 147.31 343.28 149.66
  Q 342.86 152.66 342.85 157.00
  Q 342.74 225.01 342.75 293.03
  C 342.75 295.10 342.33 296.92 340.90 298.23
  A 1.31 1.31 0.0 0 1 338.70 297.26
  L 338.89 149.03
  A 1.13 1.12 78.1 0 0 337.31 148.00
  L 283.66 171.62
  A 2.02 2.00 78.5 0 0 282.46 173.45
  L 282.30 270.40
  A 1.74 1.74 0.0 0 1 280.06 272.06
  Q 278.43 271.58 278.50 269.18
  Q 279.09 250.46 278.09 232.68
  A 2.61 2.60 -80.2 0 0 276.50 230.42
  C 273.28 229.05 261.93 225.39 263.68 220.91
  A 0.75 0.74 -68.0 0 1 264.66 220.49
  L 276.66 225.46
  A 1.16 1.15 -78.9 0 0 278.25 224.39
  L 278.25 196.52
  A 2.33 2.33 0.0 0 0 276.48 194.26
  C 273.46 193.52 261.40 190.38 263.68 185.68
  A 1.05 1.05 0.0 0 1 265.08 185.20
  L 276.01 190.58
  A 1.55 1.54 -76.7 0 0 278.24 189.20
  L 278.27 171.19
  A 2.47 2.45 -10.9 0 1 279.81 168.93
  L 286.36 166.30
  A 0.85 0.84 -41.3 0 0 286.46 164.78
  Q 286.10 164.58 286.02 164.28
  Q 285.93 163.91 285.58 163.75
  L 264.70 154.40
  A 2.39 2.38 13.6 0 1 263.30 152.11
  Q 263.43 149.67 265.90 150.69
  Q 279.48 156.30 292.94 162.43
  Q 293.40 162.64 293.87 162.45
  C 297.32 161.03 304.93 158.21 307.55 155.50
  Q 307.90 155.14 307.90 154.63
  Q 307.98 122.52 308.13 90.42
  C 308.15 87.23 308.69 80.78 307.81 77.57
  Q 307.68 77.08 307.27 76.78
  Q 305.54 75.50 302.56 74.19
  Q 279.02 63.86 255.45 53.61
  Q 253.90 52.94 252.63 52.59
  A 0.95 0.95 0.0 0 0 251.43 53.51
  Q 251.68 103.16 251.80 153.00
  Q 251.81 156.22 249.49 157.74
  A 0.85 0.84 67.1 0 1 248.20 157.21
  Q 246.97 151.57 246.96 145.75
  Q 246.86 99.67 247.70 54.23
  A 1.39 1.38 78.9 0 0 245.77 52.93
  L 193.30 75.54
  A 3.80 3.78 -11.7 0 0 191.00 79.02
  Q 191.00 124.30 191.00 170.09
  C 191.00 172.73 191.69 174.64 194.05 175.72
  Q 210.53 183.25 226.97 191.01
  A 1.87 1.86 12.9 0 1 228.04 192.71
  L 227.67 261.01
  A 1.28 1.27 -64.1 0 1 225.40 261.80
  C 224.65 260.85 224.23 259.21 224.24 257.88
  Q 224.50 226.34 223.75 194.65
  A 0.92 0.92 0.0 0 0 223.22 193.85
  L 169.29 169.43
  A 1.20 1.20 0.0 0 0 167.59 170.51
  Q 166.92 226.71 167.58 282.99
  C 167.62 286.18 167.91 288.21 165.51 289.75
  A 1.29 1.28 73.7 0 1 163.53 288.66
  L 163.48 171.75
  A 1.92 1.84 78.3 0 0 160.88 169.96
  L 107.89 194.07
  A 1.56 1.54 78.0 0 0 106.98 195.49
  L 106.99 400.36
  A 0.57 0.57 0.0 0 0 107.88 400.84
  Q 139.08 380.03 168.93 356.98
  C 182.49 346.50 194.26 336.15 208.45 323.93
  Q 214.33 318.87 218.51 314.62
  A 0.59 0.59 0.0 0 0 218.49 313.77
  L 196.57 293.50
  A 1.69 1.69 0.0 0 1 197.20 290.65
  Q 198.68 290.17 200.28 291.72
  Q 210.75 301.78 221.07 311.07
  Q 221.96 311.87 222.82 311.02
  L 237.53 296.37
  Q 237.91 295.98 237.60 295.54
  Q 236.48 293.98 235.15 292.59
  Q 223.19 280.05 212.99 266.64
  Q 212.38 265.83 213.32 265.43
  Z
  M 225.91 313.46
  A 1.11 1.11 0.0 0 0 226.00 315.12
  L 240.36 326.65
  A 1.11 1.11 0.0 0 0 241.78 326.63
  L 255.44 314.87
  A 1.11 1.11 0.0 0 0 255.51 313.25
  L 241.86 299.10
  A 1.11 1.11 0.0 0 0 240.28 299.09
  L 225.91 313.46
  Z
  M 236.37 328.84
  C 232.61 324.61 227.16 320.75 222.68 317.38
  A 0.88 0.87 41.6 0 0 221.56 317.44
  Q 184.64 352.54 142.64 381.84
  Q 121.99 396.25 100.80 409.86
  Q 99.50 410.69 99.77 411.79
  A 0.78 0.77 -19.3 0 0 100.86 412.31
  C 149.13 389.69 192.38 362.48 236.28 329.71
  Q 236.80 329.32 236.37 328.84
  Z
  M 245.36 329.88
  C 285.73 362.88 331.51 390.51 379.12 411.72
  A 1.04 1.03 -81.4 0 0 380.57 410.65
  Q 380.42 409.34 379.14 408.57
  Q 314.63 369.34 260.21 317.44
  A 0.82 0.81 -42.1 0 0 259.14 317.39
  L 245.37 328.34
  Q 244.41 329.11 245.36 329.88
  Z"
/>
<rect fill="#ffffff" x="-18.40" y="-2.16" transform="translate(279.87,88.01) rotate(23.9)" width="36.80" height="4.32" rx="1.42"/>
<rect fill="#ffffff" x="-18.13" y="-2.14" transform="translate(280.10,123.35) rotate(23.6)" width="36.26" height="4.28" rx="1.47"/>
<rect fill="#ffffff" x="-18.42" y="-2.04" transform="translate(372.68,180.40) rotate(24.1)" width="36.84" height="4.08" rx="1.94"/>
<ellipse fill="#ffffff" cx="0.00" cy="0.00" transform="translate(249.26,179.54) rotate(89.9)" rx="7.24" ry="2.50"/>
<rect fill="#ffffff" x="-18.32" y="-2.20" transform="translate(196.52,204.22) rotate(23.9)" width="36.64" height="4.40" rx="1.82"/>
<rect fill="#ffffff" x="247.02" y="205.83" width="4.56" height="39.66" rx="2.24"/>
<path fill="#ffffff" d="
  M 390.48 221.05
  A 0.16 0.16 0.0 0 1 390.56 221.27
  L 390.51 221.39
  A 4.43 4.28 24.1 0 1 384.72 223.49
  L 358.55 211.79
  A 4.43 4.28 24.1 0 1 356.26 206.07
  L 356.31 205.95
  A 0.16 0.16 0.0 0 1 356.53 205.86
  L 390.48 221.05
  Z"
/>
<rect fill="#ffffff" x="-18.39" y="-2.25" transform="translate(196.69,239.49) rotate(24.2)" width="36.78" height="4.50" rx="1.93"/>
<rect fill="#ffffff" x="-18.44" y="-2.24" transform="translate(372.51,251.02) rotate(23.9)" width="36.88" height="4.48" rx="1.58"/>
<rect fill="#ffffff" x="-18.14" y="-2.17" transform="translate(372.64,286.29) rotate(24.1)" width="36.28" height="4.34" rx="1.72"/>
<rect fill="#ffffff" x="-1.74" y="-4.95" transform="translate(165.48,308.22) rotate(-0.8)" width="3.48" height="9.90" rx="1.60"/>
<rect fill="#ffffff" x="-1.89" y="-13.64" transform="translate(340.61,326.78) rotate(-0.3)" width="3.78" height="27.28" rx="0.98"/>
<rect fill="#ffffff" x="-18.22" y="-2.12" transform="translate(372.74,321.54) rotate(23.6)" width="36.44" height="4.24" rx="1.88"/>
<rect fill="#ffffff" x="-1.91" y="-8.47" transform="translate(165.41,335.98) rotate(-0.4)" width="3.82" height="16.94" rx="1.00"/>
<path fill="#ffffff" d="
  M 286.0318 401.0641
  A 2.10 2.10 0.0 0 1 286.0215 404.0339
  L 244.8664 444.9027
  A 2.10 2.10 0.0 0 1 241.8965 444.8923
  L 200.7882 403.4959
  A 2.10 2.10 0.0 0 1 200.7985 400.5261
  L 241.9536 359.6573
  A 2.10 2.10 0.0 0 1 244.9235 359.6677
  L 286.0318 401.0641
  Z
  M 245.1223 365.5023
  A 1.96 1.96 0.0 0 0 242.3505 365.4926
  L 206.9429 400.6538
  A 1.96 1.96 0.0 0 0 206.9332 403.4257
  L 242.2777 439.0177
  A 1.96 1.96 0.0 0 0 245.0495 439.0274
  L 280.4571 403.8662
  A 1.96 1.96 0.0 0 0 280.4668 401.0943
  L 245.1223 365.5023
  Z"
/>
</svg>
