<?xml version="1.0" encoding="utf-8"?><!-- Uploaded to: SVG Repo, www.svgrepo.com, Generator: SVG Repo Mixer Tools -->
<svg width="800px" height="800px" viewBox="0 0 24 24" fill="none" xmlns="http://www.w3.org/2000/svg">
<path fill-rule="evenodd" clip-rule="evenodd" d="M13.9928 6.6967L17.1747 3.51472L20.3567 6.6967L19.2961 7.75736L17.9247 6.38604L17.9247 17.614L19.2961 16.2426L20.3567 17.3033L17.1747 20.4853L13.9928 17.3033L15.0534 16.2426L16.4247 17.614V6.38604L15.0534 7.75736L13.9928 6.6967Z" fill="#ffffff"/>
<path fill-rule="evenodd" clip-rule="evenodd" d="M3.75 4.5L4.5 3.75H12L12.75 4.5V19.5L12 20.25H4.5L3.75 19.5V4.5ZM5.25 5.25V18.75H11.25V17.25H8.25V15.75H11.25V14.25H8.25V12.75H11.25V11.25H7.5V9.75H11.25V8.25H8.25V6.75H11.25V5.25H5.25Z" fill="#ffffff"/>
</svg>